<svg width="80" height="35" viewBox="0 0 80 35" fill="none" xmlns="http://www.w3.org/2000/svg">
<rect x="1.5" y="1.5" width="77" height="32" rx="6.5" fill="white" stroke="#9E9E9E" stroke-width="3"/>
<path d="M18.7013 20.68V23.788H17.2613V22H10.8173V23.788H9.36527L9.37727 20.68H9.73727C10.2653 20.656 10.6333 20.268 10.8413 19.516C11.0573 18.756 11.1893 17.672 11.2373 16.264L11.3333 13.6H17.4893V20.68H18.7013ZM12.6053 16.408C12.5653 17.496 12.4773 18.404 12.3413 19.132C12.2053 19.852 11.9893 20.368 11.6933 20.68H15.9533V14.92H12.6653L12.6053 16.408ZM22.741 22.084C22.093 22.084 21.509 21.944 20.989 21.664C20.469 21.384 20.061 20.996 19.765 20.5C19.477 19.996 19.333 19.428 19.333 18.796C19.333 18.164 19.477 17.6 19.765 17.104C20.061 16.608 20.469 16.22 20.989 15.94C21.509 15.66 22.093 15.52 22.741 15.52C23.397 15.52 23.985 15.66 24.505 15.94C25.025 16.22 25.429 16.608 25.717 17.104C26.013 17.6 26.161 18.164 26.161 18.796C26.161 19.428 26.013 19.996 25.717 20.5C25.429 20.996 25.025 21.384 24.505 21.664C23.985 21.944 23.397 22.084 22.741 22.084ZM22.741 20.8C23.293 20.8 23.749 20.616 24.109 20.248C24.469 19.88 24.649 19.396 24.649 18.796C24.649 18.196 24.469 17.712 24.109 17.344C23.749 16.976 23.293 16.792 22.741 16.792C22.189 16.792 21.733 16.976 21.373 17.344C21.021 17.712 20.845 18.196 20.845 18.796C20.845 19.396 21.021 19.88 21.373 20.248C21.733 20.616 22.189 20.8 22.741 20.8ZM31.1108 15.904C31.7188 15.904 32.2548 16.036 32.7188 16.3C33.1828 16.556 33.5428 16.916 33.7988 17.38C34.0628 17.844 34.1948 18.376 34.1948 18.976C34.1948 19.592 34.0508 20.14 33.7628 20.62C33.4748 21.092 33.0708 21.46 32.5508 21.724C32.0308 21.988 31.4388 22.12 30.7748 22.12C29.6628 22.12 28.8028 21.752 28.1948 21.016C27.5868 20.28 27.2828 19.22 27.2828 17.836C27.2828 16.548 27.5588 15.528 28.1108 14.776C28.6628 14.024 29.5068 13.528 30.6428 13.288L33.6188 12.652L33.8348 13.996L31.1348 14.548C30.3588 14.708 29.7788 14.98 29.3948 15.364C29.0108 15.748 28.7868 16.288 28.7228 16.984C29.0108 16.64 29.3588 16.376 29.7668 16.192C30.1748 16 30.6228 15.904 31.1108 15.904ZM30.8108 20.908C31.3628 20.908 31.8068 20.732 32.1428 20.38C32.4868 20.02 32.6588 19.564 32.6588 19.012C32.6588 18.46 32.4868 18.016 32.1428 17.68C31.8068 17.344 31.3628 17.176 30.8108 17.176C30.2508 17.176 29.7988 17.344 29.4548 17.68C29.1108 18.016 28.9388 18.46 28.9388 19.012C28.9388 19.572 29.1108 20.028 29.4548 20.38C29.8068 20.732 30.2588 20.908 30.8108 20.908ZM37.9526 15.52C38.8966 15.52 39.6166 15.748 40.1126 16.204C40.6166 16.652 40.8686 17.332 40.8686 18.244V22H39.4526V21.22C39.2686 21.5 39.0046 21.716 38.6606 21.868C38.3246 22.012 37.9166 22.084 37.4366 22.084C36.9566 22.084 36.5366 22.004 36.1766 21.844C35.8166 21.676 35.5366 21.448 35.3366 21.16C35.1446 20.864 35.0486 20.532 35.0486 20.164C35.0486 19.588 35.2606 19.128 35.6846 18.784C36.1166 18.432 36.7926 18.256 37.7126 18.256H39.3686V18.16C39.3686 17.712 39.2326 17.368 38.9606 17.128C38.6966 16.888 38.3006 16.768 37.7726 16.768C37.4126 16.768 37.0566 16.824 36.7046 16.936C36.3606 17.048 36.0686 17.204 35.8286 17.404L35.2406 16.312C35.5766 16.056 35.9806 15.86 36.4526 15.724C36.9246 15.588 37.4246 15.52 37.9526 15.52ZM37.7486 20.992C38.1246 20.992 38.4566 20.908 38.7446 20.74C39.0406 20.564 39.2486 20.316 39.3686 19.996V19.252H37.8206C36.9566 19.252 36.5246 19.536 36.5246 20.104C36.5246 20.376 36.6326 20.592 36.8486 20.752C37.0646 20.912 37.3646 20.992 37.7486 20.992ZM47.3688 18.664C48.1608 18.904 48.5568 19.416 48.5568 20.2C48.5568 20.776 48.3408 21.22 47.9088 21.532C47.4768 21.844 46.8368 22 45.9888 22H42.7248V15.592H45.8568C46.6408 15.592 47.2528 15.736 47.6928 16.024C48.1328 16.312 48.3528 16.72 48.3528 17.248C48.3528 17.576 48.2648 17.86 48.0888 18.1C47.9208 18.34 47.6808 18.528 47.3688 18.664ZM44.1528 18.268H45.7248C46.5008 18.268 46.8888 18 46.8888 17.464C46.8888 16.944 46.5008 16.684 45.7248 16.684H44.1528V18.268ZM45.8688 20.908C46.6928 20.908 47.1048 20.64 47.1048 20.104C47.1048 19.824 47.0088 19.616 46.8168 19.48C46.6248 19.336 46.3248 19.264 45.9168 19.264H44.1528V20.908H45.8688ZM50.1545 15.592H51.6545V19.816L55.1945 15.592H56.5625V22H55.0625V17.776L51.5345 22H50.1545V15.592ZM63.6563 16.864H61.4123V22H59.9123V16.864H57.6563V15.592H63.6563V16.864ZM67.9603 17.704C68.7763 17.704 69.4003 17.888 69.8323 18.256C70.2723 18.624 70.4923 19.144 70.4923 19.816C70.4923 20.52 70.2523 21.064 69.7723 21.448C69.2923 21.832 68.6163 22.02 67.7443 22.012L64.7443 22V15.592H66.2443V17.692L67.9603 17.704ZM67.6123 20.908C68.0523 20.916 68.3883 20.824 68.6203 20.632C68.8523 20.44 68.9683 20.16 68.9683 19.792C68.9683 19.432 68.8563 19.168 68.6323 19C68.4083 18.832 68.0683 18.744 67.6123 18.736L66.2443 18.724V20.896L67.6123 20.908Z" fill="#686868"/>
</svg>
