<svg width="80" height="35" viewBox="0 0 80 35" fill="none" xmlns="http://www.w3.org/2000/svg">
<rect x="1.5" y="1.5" width="77" height="32" rx="6.5" fill="white" stroke="#9E9E9E" stroke-width="3"/>
<path d="M25.9762 19.79V22.639H24.6562V21H18.7492V22.639H17.4182L17.4292 19.79H17.7592C18.2432 19.768 18.5805 19.4123 18.7712 18.723C18.9692 18.0263 19.0902 17.0327 19.1342 15.742L19.2222 13.3H24.8652V19.79H25.9762ZM20.3882 15.874C20.3515 16.8713 20.2708 17.7037 20.1462 18.371C20.0215 19.031 19.8235 19.504 19.5522 19.79H23.4572V14.51H20.4432L20.3882 15.874ZM29.6792 21.077C29.0852 21.077 28.5499 20.9487 28.0732 20.692C27.5965 20.4353 27.2225 20.0797 26.9512 19.625C26.6872 19.163 26.5552 18.6423 26.5552 18.063C26.5552 17.4837 26.6872 16.9667 26.9512 16.512C27.2225 16.0573 27.5965 15.7017 28.0732 15.445C28.5499 15.1883 29.0852 15.06 29.6792 15.06C30.2805 15.06 30.8195 15.1883 31.2962 15.445C31.7729 15.7017 32.1432 16.0573 32.4072 16.512C32.6785 16.9667 32.8142 17.4837 32.8142 18.063C32.8142 18.6423 32.6785 19.163 32.4072 19.625C32.1432 20.0797 31.7729 20.4353 31.2962 20.692C30.8195 20.9487 30.2805 21.077 29.6792 21.077ZM29.6792 19.9C30.1852 19.9 30.6032 19.7313 30.9332 19.394C31.2632 19.0567 31.4282 18.613 31.4282 18.063C31.4282 17.513 31.2632 17.0693 30.9332 16.732C30.6032 16.3947 30.1852 16.226 29.6792 16.226C29.1732 16.226 28.7552 16.3947 28.4252 16.732C28.1025 17.0693 27.9412 17.513 27.9412 18.063C27.9412 18.613 28.1025 19.0567 28.4252 19.394C28.7552 19.7313 29.1732 19.9 29.6792 19.9ZM37.3515 15.412C37.9089 15.412 38.4002 15.533 38.8255 15.775C39.2509 16.0097 39.5809 16.3397 39.8155 16.765C40.0575 17.1903 40.1785 17.678 40.1785 18.228C40.1785 18.7927 40.0465 19.295 39.7825 19.735C39.5185 20.1677 39.1482 20.505 38.6715 20.747C38.1949 20.989 37.6522 21.11 37.0435 21.11C36.0242 21.11 35.2359 20.7727 34.6785 20.098C34.1212 19.4233 33.8425 18.4517 33.8425 17.183C33.8425 16.0023 34.0955 15.0673 34.6015 14.378C35.1075 13.6887 35.8812 13.234 36.9225 13.014L39.6505 12.431L39.8485 13.663L37.3735 14.169C36.6622 14.3157 36.1305 14.565 35.7785 14.917C35.4265 15.269 35.2212 15.764 35.1625 16.402C35.4265 16.0867 35.7455 15.8447 36.1195 15.676C36.4935 15.5 36.9042 15.412 37.3515 15.412ZM37.0765 19.999C37.5825 19.999 37.9895 19.8377 38.2975 19.515C38.6129 19.185 38.7705 18.767 38.7705 18.261C38.7705 17.755 38.6129 17.348 38.2975 17.04C37.9895 16.732 37.5825 16.578 37.0765 16.578C36.5632 16.578 36.1489 16.732 35.8335 17.04C35.5182 17.348 35.3605 17.755 35.3605 18.261C35.3605 18.7743 35.5182 19.1923 35.8335 19.515C36.1562 19.8377 36.5705 19.999 37.0765 19.999ZM43.6233 15.06C44.4886 15.06 45.1486 15.269 45.6033 15.687C46.0653 16.0977 46.2963 16.721 46.2963 17.557V21H44.9983V20.285C44.8296 20.5417 44.5876 20.7397 44.2723 20.879C43.9643 21.011 43.5903 21.077 43.1503 21.077C42.7103 21.077 42.3253 21.0037 41.9953 20.857C41.6653 20.703 41.4086 20.494 41.2253 20.23C41.0493 19.9587 40.9613 19.6543 40.9613 19.317C40.9613 18.789 41.1556 18.3673 41.5443 18.052C41.9403 17.7293 42.5599 17.568 43.4033 17.568H44.9213V17.48C44.9213 17.0693 44.7966 16.754 44.5473 16.534C44.3053 16.314 43.9423 16.204 43.4583 16.204C43.1283 16.204 42.8019 16.2553 42.4793 16.358C42.1639 16.4607 41.8963 16.6037 41.6763 16.787L41.1373 15.786C41.4453 15.5513 41.8156 15.3717 42.2483 15.247C42.6809 15.1223 43.1393 15.06 43.6233 15.06ZM43.4363 20.076C43.7809 20.076 44.0853 19.999 44.3493 19.845C44.6206 19.6837 44.8113 19.4563 44.9213 19.163V18.481H43.5023C42.7103 18.481 42.3143 18.7413 42.3143 19.262C42.3143 19.5113 42.4133 19.7093 42.6113 19.856C42.8093 20.0027 43.0843 20.076 43.4363 20.076ZM52.2547 17.942C52.9807 18.162 53.3437 18.6313 53.3437 19.35C53.3437 19.878 53.1457 20.285 52.7497 20.571C52.3537 20.857 51.7671 21 50.9897 21H47.9977V15.126H50.8687C51.5874 15.126 52.1484 15.258 52.5517 15.522C52.9551 15.786 53.1567 16.16 53.1567 16.644C53.1567 16.9447 53.0761 17.205 52.9147 17.425C52.7607 17.645 52.5407 17.8173 52.2547 17.942ZM49.3067 17.579H50.7477C51.4591 17.579 51.8147 17.3333 51.8147 16.842C51.8147 16.3653 51.4591 16.127 50.7477 16.127H49.3067V17.579ZM50.8797 19.999C51.6351 19.999 52.0127 19.7533 52.0127 19.262C52.0127 19.0053 51.9247 18.8147 51.7487 18.69C51.5727 18.558 51.2977 18.492 50.9237 18.492H49.3067V19.999H50.8797ZM54.8083 15.126H56.1833V18.998L59.4283 15.126H60.6823V21H59.3073V17.128L56.0733 21H54.8083V15.126ZM67.1849 16.292H65.1279V21H63.7529V16.292H61.6849V15.126H67.1849V16.292ZM71.1303 17.062C71.8783 17.062 72.4503 17.2307 72.8463 17.568C73.2496 17.9053 73.4513 18.382 73.4513 18.998C73.4513 19.6433 73.2313 20.142 72.7913 20.494C72.3513 20.846 71.7316 21.0183 70.9323 21.011L68.1823 21V15.126H69.5573V17.051L71.1303 17.062ZM70.8113 19.999C71.2146 20.0063 71.5226 19.922 71.7353 19.746C71.948 19.57 72.0543 19.3133 72.0543 18.976C72.0543 18.646 71.9516 18.404 71.7463 18.25C71.541 18.096 71.2293 18.0153 70.8113 18.008L69.5573 17.997V19.988L70.8113 19.999Z" fill="#686868"/>
<g opacity="0.5">
<line x1="10" y1="13" x2="10" y2="21" stroke="black" stroke-width="2" stroke-linecap="round"/>
<line x1="6" y1="17" x2="14" y2="17" stroke="black" stroke-width="2" stroke-linecap="round"/>
</g>
</svg>
