<svg width="25" height="25" viewBox="0 0 25 25" fill="none" xmlns="http://www.w3.org/2000/svg">
<rect x="2" y="2" width="21" height="21" rx="3" fill="#E6E6E6" stroke="#E6E6E6" stroke-width="4"/>
<path d="M2.56531 11.4209C3.29332 10.8109 4.44501 10.8362 5.13769 11.4772L12.6935 18.4698L10.5035 20.3046C10.257 20.5111 9.86701 20.5026 9.63246 20.2855L2.50133 13.6859C1.80866 13.0449 1.8373 12.0308 2.56531 11.4209Z" fill="white"/>
<path d="M23.2617 5.32635C24.0779 5.86622 24.2425 6.88648 23.6294 7.60516L12.8073 20.2908C12.1384 21.0748 10.8744 21.2329 9.98402 20.644C9.24203 20.1532 9.09237 19.2257 9.64975 18.5723L20.6737 5.65012C21.2868 4.93144 22.4455 4.78648 23.2617 5.32635Z" fill="white"/>
</svg>
