<svg width="100" height="30" viewBox="0 0 100 30" fill="none" xmlns="http://www.w3.org/2000/svg">
<rect x="1.5" y="1.5" width="97" height="27" rx="6.5" fill="white" stroke="#9E9E9E" stroke-width="3"/>
<path d="M16.8018 15.632C17.3378 15.776 17.7458 16.024 18.0258 16.376C18.3058 16.72 18.4458 17.152 18.4458 17.672C18.4458 18.408 18.1738 18.98 17.6298 19.388C17.0858 19.796 16.2978 20 15.2658 20H11.2818V11.6H15.0378C15.9818 11.6 16.7178 11.788 17.2458 12.164C17.7738 12.54 18.0378 13.072 18.0378 13.76C18.0378 14.2 17.9298 14.58 17.7138 14.9C17.5058 15.22 17.2018 15.464 16.8018 15.632ZM12.8178 15.188H14.9058C15.4098 15.188 15.7938 15.088 16.0578 14.888C16.3218 14.688 16.4538 14.392 16.4538 14C16.4538 13.608 16.3218 13.312 16.0578 13.112C15.7938 12.904 15.4098 12.8 14.9058 12.8H12.8178V15.188ZM15.2178 18.8C16.3218 18.8 16.8737 18.384 16.8737 17.552C16.8737 16.736 16.3218 16.328 15.2178 16.328H12.8178V18.8H15.2178ZM23.1749 15.704C23.9909 15.704 24.6149 15.888 25.0469 16.256C25.4789 16.624 25.6949 17.144 25.6949 17.816C25.6949 18.52 25.4549 19.064 24.9749 19.448C24.5029 19.832 23.8309 20.02 22.9589 20.012L20.0549 20V13.592H21.5549V15.692L23.1749 15.704ZM26.5229 13.592H28.0229V20H26.5229V13.592ZM22.8269 18.908C23.2669 18.916 23.6029 18.824 23.8349 18.632C24.0669 18.44 24.1829 18.16 24.1829 17.792C24.1829 17.432 24.0709 17.168 23.8469 17C23.6229 16.832 23.2829 16.744 22.8269 16.736L21.5549 16.724V18.896L22.8269 18.908ZM33.5073 13.904C34.1153 13.904 34.6513 14.036 35.1153 14.3C35.5793 14.556 35.9392 14.916 36.1953 15.38C36.4593 15.844 36.5913 16.376 36.5913 16.976C36.5913 17.592 36.4473 18.14 36.1593 18.62C35.8713 19.092 35.4673 19.46 34.9473 19.724C34.4273 19.988 33.8353 20.12 33.1713 20.12C32.0593 20.12 31.1993 19.752 30.5913 19.016C29.9833 18.28 29.6793 17.22 29.6793 15.836C29.6793 14.548 29.9553 13.528 30.5073 12.776C31.0593 12.024 31.9033 11.528 33.0393 11.288L36.0153 10.652L36.2313 11.996L33.5313 12.548C32.7553 12.708 32.1753 12.98 31.7913 13.364C31.4073 13.748 31.1833 14.288 31.1193 14.984C31.4073 14.64 31.7553 14.376 32.1633 14.192C32.5713 14 33.0193 13.904 33.5073 13.904ZM33.2073 18.908C33.7593 18.908 34.2033 18.732 34.5393 18.38C34.8833 18.02 35.0553 17.564 35.0553 17.012C35.0553 16.46 34.8833 16.016 34.5393 15.68C34.2033 15.344 33.7593 15.176 33.2073 15.176C32.6473 15.176 32.1953 15.344 31.8513 15.68C31.5073 16.016 31.3353 16.46 31.3353 17.012C31.3353 17.572 31.5073 18.028 31.8513 18.38C32.2033 18.732 32.6553 18.908 33.2073 18.908ZM41.5952 13.52C42.2192 13.52 42.7752 13.656 43.2632 13.928C43.7592 14.2 44.1472 14.584 44.4272 15.08C44.7072 15.576 44.8472 16.148 44.8472 16.796C44.8472 17.444 44.7072 18.02 44.4272 18.524C44.1472 19.02 43.7592 19.404 43.2632 19.676C42.7752 19.948 42.2192 20.084 41.5952 20.084C40.7312 20.084 40.0472 19.796 39.5432 19.22V22.328H38.0432V13.592H39.4712V14.432C39.7192 14.128 40.0232 13.9 40.3832 13.748C40.7512 13.596 41.1552 13.52 41.5952 13.52ZM41.4272 18.8C41.9792 18.8 42.4312 18.616 42.7832 18.248C43.1432 17.88 43.3232 17.396 43.3232 16.796C43.3232 16.196 43.1432 15.712 42.7832 15.344C42.4312 14.976 41.9792 14.792 41.4272 14.792C41.0672 14.792 40.7432 14.876 40.4552 15.044C40.1672 15.204 39.9392 15.436 39.7712 15.74C39.6032 16.044 39.5192 16.396 39.5192 16.796C39.5192 17.196 39.6032 17.548 39.7712 17.852C39.9392 18.156 40.1672 18.392 40.4552 18.56C40.7432 18.72 41.0672 18.8 41.4272 18.8ZM48.646 13.52C49.59 13.52 50.31 13.748 50.806 14.204C51.31 14.652 51.562 15.332 51.562 16.244V20H50.146V19.22C49.962 19.5 49.698 19.716 49.354 19.868C49.018 20.012 48.61 20.084 48.13 20.084C47.65 20.084 47.23 20.004 46.87 19.844C46.51 19.676 46.23 19.448 46.03 19.16C45.838 18.864 45.742 18.532 45.742 18.164C45.742 17.588 45.954 17.128 46.378 16.784C46.81 16.432 47.486 16.256 48.406 16.256H50.062V16.16C50.062 15.712 49.926 15.368 49.654 15.128C49.39 14.888 48.994 14.768 48.466 14.768C48.106 14.768 47.75 14.824 47.398 14.936C47.054 15.048 46.762 15.204 46.522 15.404L45.934 14.312C46.27 14.056 46.674 13.86 47.146 13.724C47.618 13.588 48.118 13.52 48.646 13.52ZM48.442 18.992C48.818 18.992 49.15 18.908 49.438 18.74C49.734 18.564 49.942 18.316 50.062 17.996V17.252H48.514C47.65 17.252 47.218 17.536 47.218 18.104C47.218 18.376 47.326 18.592 47.542 18.752C47.758 18.912 48.058 18.992 48.442 18.992ZM58.4942 14.864H56.2502V20H54.7502V14.864H52.4942V13.592H58.4942V14.864ZM62.7982 15.704C63.6142 15.704 64.2382 15.888 64.6702 16.256C65.1102 16.624 65.3302 17.144 65.3302 17.816C65.3302 18.52 65.0902 19.064 64.6102 19.448C64.1302 19.832 63.4542 20.02 62.5822 20.012L59.5822 20V13.592H61.0822V15.692L62.7982 15.704ZM62.4502 18.908C62.8902 18.916 63.2262 18.824 63.4582 18.632C63.6902 18.44 63.8062 18.16 63.8062 17.792C63.8062 17.432 63.6942 17.168 63.4702 17C63.2462 16.832 62.9062 16.744 62.4502 16.736L61.0822 16.724V18.896L62.4502 18.908ZM74.609 16.664C75.401 16.904 75.797 17.416 75.797 18.2C75.797 18.776 75.581 19.22 75.149 19.532C74.717 19.844 74.077 20 73.229 20H69.965V13.592H73.097C73.881 13.592 74.493 13.736 74.933 14.024C75.373 14.312 75.593 14.72 75.593 15.248C75.593 15.576 75.505 15.86 75.329 16.1C75.161 16.34 74.921 16.528 74.609 16.664ZM71.393 16.268H72.965C73.741 16.268 74.129 16 74.129 15.464C74.129 14.944 73.741 14.684 72.965 14.684H71.393V16.268ZM73.109 18.908C73.933 18.908 74.345 18.64 74.345 18.104C74.345 17.824 74.249 17.616 74.057 17.48C73.865 17.336 73.565 17.264 73.157 17.264H71.393V18.908H73.109ZM80.3107 20.084C79.6467 20.084 79.0507 19.944 78.5227 19.664C77.9947 19.384 77.5827 18.996 77.2867 18.5C76.9907 17.996 76.8427 17.428 76.8427 16.796C76.8427 16.164 76.9907 15.6 77.2867 15.104C77.5827 14.608 77.9907 14.22 78.5107 13.94C79.0387 13.66 79.6387 13.52 80.3107 13.52C80.9427 13.52 81.4947 13.648 81.9667 13.904C82.4467 14.16 82.8067 14.528 83.0467 15.008L81.8947 15.68C81.7107 15.384 81.4787 15.164 81.1987 15.02C80.9267 14.868 80.6267 14.792 80.2987 14.792C79.7387 14.792 79.2747 14.976 78.9067 15.344C78.5387 15.704 78.3547 16.188 78.3547 16.796C78.3547 17.404 78.5347 17.892 78.8947 18.26C79.2627 18.62 79.7307 18.8 80.2987 18.8C80.6267 18.8 80.9267 18.728 81.1987 18.584C81.4787 18.432 81.7107 18.208 81.8947 17.912L83.0467 18.584C82.7987 19.064 82.4347 19.436 81.9547 19.7C81.4827 19.956 80.9347 20.084 80.3107 20.084ZM90.2736 16.832C90.2736 16.936 90.2656 17.084 90.2496 17.276H85.2216C85.3096 17.748 85.5376 18.124 85.9056 18.404C86.2816 18.676 86.7456 18.812 87.2976 18.812C88.0016 18.812 88.5816 18.58 89.0376 18.116L89.8416 19.04C89.5536 19.384 89.1896 19.644 88.7496 19.82C88.3096 19.996 87.8136 20.084 87.2616 20.084C86.5576 20.084 85.9376 19.944 85.4016 19.664C84.8656 19.384 84.4496 18.996 84.1536 18.5C83.8656 17.996 83.7216 17.428 83.7216 16.796C83.7216 16.172 83.8616 15.612 84.1416 15.116C84.4296 14.612 84.8256 14.22 85.3296 13.94C85.8336 13.66 86.4016 13.52 87.0336 13.52C87.6576 13.52 88.2136 13.66 88.7016 13.94C89.1976 14.212 89.5816 14.6 89.8536 15.104C90.1336 15.6 90.2736 16.176 90.2736 16.832ZM87.0336 14.72C86.5536 14.72 86.1456 14.864 85.8096 15.152C85.4816 15.432 85.2816 15.808 85.2096 16.28H88.8456C88.7816 15.816 88.5856 15.44 88.2576 15.152C87.9296 14.864 87.5216 14.72 87.0336 14.72Z" fill="#686868"/>
</svg>
