<svg width="140" height="30" viewBox="0 0 140 30" fill="none" xmlns="http://www.w3.org/2000/svg">
<rect x="1.5" y="1.5" width="137" height="27" rx="6.5" fill="white" stroke="#9E9E9E" stroke-width="3"/>
<path d="M19.1553 11.3L15.8113 17.515C15.518 18.065 15.166 18.4793 14.7553 18.758C14.352 19.0293 13.912 19.165 13.4353 19.165C13.054 19.165 12.6763 19.0843 12.3023 18.923L12.6543 17.801C12.955 17.8963 13.2043 17.944 13.4023 17.944C13.8643 17.944 14.2456 17.7057 14.5463 17.229L14.6673 17.042L11.5983 11.3H13.1273L15.4043 15.821L17.7473 11.3H19.1553ZM25.9865 17.834V20.309H24.6995V19H20.1675V20.309H18.8915V17.834H19.1665C19.5405 17.8193 19.7935 17.581 19.9255 17.119C20.0648 16.6497 20.1565 15.9897 20.2005 15.139L20.2775 13.126H25.1175V17.834H25.9865ZM21.4545 15.238C21.4251 15.9127 21.3701 16.4627 21.2895 16.888C21.2088 17.3133 21.0621 17.6287 20.8495 17.834H23.7425V14.292H21.4875L21.4545 15.238ZM29.4035 13.06C30.2689 13.06 30.9289 13.269 31.3835 13.687C31.8455 14.0977 32.0765 14.721 32.0765 15.557V19H30.7785V18.285C30.6099 18.5417 30.3679 18.7397 30.0525 18.879C29.7445 19.011 29.3705 19.077 28.9305 19.077C28.4905 19.077 28.1055 19.0037 27.7755 18.857C27.4455 18.703 27.1889 18.494 27.0055 18.23C26.8295 17.9587 26.7415 17.6543 26.7415 17.317C26.7415 16.789 26.9359 16.3673 27.3245 16.052C27.7205 15.7293 28.3402 15.568 29.1835 15.568H30.7015V15.48C30.7015 15.0693 30.5769 14.754 30.3275 14.534C30.0855 14.314 29.7225 14.204 29.2385 14.204C28.9085 14.204 28.5822 14.2553 28.2595 14.358C27.9442 14.4607 27.6765 14.6037 27.4565 14.787L26.9175 13.786C27.2255 13.5513 27.5959 13.3717 28.0285 13.247C28.4612 13.1223 28.9195 13.06 29.4035 13.06ZM29.2165 18.076C29.5612 18.076 29.8655 17.999 30.1295 17.845C30.4009 17.6837 30.5915 17.4563 30.7015 17.163V16.481H29.2825C28.4905 16.481 28.0945 16.7413 28.0945 17.262C28.0945 17.5113 28.1935 17.7093 28.3915 17.856C28.5895 18.0027 28.8645 18.076 29.2165 18.076ZM39.102 13.126V19H37.727V14.292H35.527L35.472 15.458C35.4353 16.2353 35.362 16.888 35.252 17.416C35.1493 17.9367 34.9697 18.351 34.713 18.659C34.4637 18.9597 34.119 19.11 33.679 19.11C33.4737 19.11 33.2207 19.0697 32.92 18.989L32.986 17.834C33.0887 17.856 33.1767 17.867 33.25 17.867C33.5287 17.867 33.7377 17.757 33.877 17.537C34.0163 17.3097 34.1043 17.042 34.141 16.734C34.185 16.4187 34.2217 15.9713 34.251 15.392L34.35 13.126H39.102ZM40.9538 13.126H42.3288V16.998L45.5738 13.126H46.8278V19H45.4528V15.128L42.2188 19H40.9538V13.126ZM53.3304 14.292H51.2734V19H49.8984V14.292H47.8304V13.126H53.3304V14.292ZM57.2758 15.062C58.0238 15.062 58.5958 15.2307 58.9918 15.568C59.3951 15.9053 59.5968 16.382 59.5968 16.998C59.5968 17.6433 59.3768 18.142 58.9368 18.494C58.4968 18.846 57.8771 19.0183 57.0778 19.011L54.3278 19V13.126H55.7028V15.051L57.2758 15.062ZM56.9568 17.999C57.3601 18.0063 57.6681 17.922 57.8808 17.746C58.0935 17.57 58.1998 17.3133 58.1998 16.976C58.1998 16.646 58.0971 16.404 57.8918 16.25C57.6865 16.096 57.3748 16.0153 56.9568 16.008L55.7028 15.997V17.988L56.9568 17.999ZM68.1024 15.942C68.8284 16.162 69.1914 16.6313 69.1914 17.35C69.1914 17.878 68.9934 18.285 68.5974 18.571C68.2014 18.857 67.6147 19 66.8374 19H63.8454V13.126H66.7164C67.4351 13.126 67.9961 13.258 68.3994 13.522C68.8027 13.786 69.0044 14.16 69.0044 14.644C69.0044 14.9447 68.9237 15.205 68.7624 15.425C68.6084 15.645 68.3884 15.8173 68.1024 15.942ZM65.1544 15.579H66.5954C67.3067 15.579 67.6624 15.3333 67.6624 14.842C67.6624 14.3653 67.3067 14.127 66.5954 14.127H65.1544V15.579ZM66.7274 17.999C67.4827 17.999 67.8604 17.7533 67.8604 17.262C67.8604 17.0053 67.7724 16.8147 67.5964 16.69C67.4204 16.558 67.1454 16.492 66.7714 16.492H65.1544V17.999H66.7274ZM73.5159 15.062C74.2639 15.062 74.8359 15.2307 75.2319 15.568C75.6279 15.9053 75.8259 16.382 75.8259 16.998C75.8259 17.6433 75.6059 18.142 75.1659 18.494C74.7333 18.846 74.1173 19.0183 73.3179 19.011L70.6559 19V13.126H72.0309V15.051L73.5159 15.062ZM76.5849 13.126H77.9599V19H76.5849V13.126ZM73.1969 17.999C73.6003 18.0063 73.9083 17.922 74.1209 17.746C74.3336 17.57 74.4399 17.3133 74.4399 16.976C74.4399 16.646 74.3373 16.404 74.1319 16.25C73.9266 16.096 73.6149 16.0153 73.1969 16.008L72.0309 15.997V17.988L73.1969 17.999ZM82.9873 13.412C83.5446 13.412 84.0359 13.533 84.4613 13.775C84.8866 14.0097 85.2166 14.3397 85.4513 14.765C85.6933 15.1903 85.8143 15.678 85.8143 16.228C85.8143 16.7927 85.6823 17.295 85.4183 17.735C85.1543 18.1677 84.7839 18.505 84.3073 18.747C83.8306 18.989 83.2879 19.11 82.6793 19.11C81.6599 19.11 80.8716 18.7727 80.3143 18.098C79.7569 17.4233 79.4783 16.4517 79.4783 15.183C79.4783 14.0023 79.7313 13.0673 80.2373 12.378C80.7433 11.6887 81.5169 11.234 82.5583 11.014L85.2863 10.431L85.4843 11.663L83.0093 12.169C82.2979 12.3157 81.7663 12.565 81.4143 12.917C81.0623 13.269 80.8569 13.764 80.7983 14.402C81.0623 14.0867 81.3813 13.8447 81.7553 13.676C82.1293 13.5 82.5399 13.412 82.9873 13.412ZM82.7123 17.999C83.2183 17.999 83.6253 17.8377 83.9333 17.515C84.2486 17.185 84.4063 16.767 84.4063 16.261C84.4063 15.755 84.2486 15.348 83.9333 15.04C83.6253 14.732 83.2183 14.578 82.7123 14.578C82.1989 14.578 81.7846 14.732 81.4693 15.04C81.1539 15.348 80.9963 15.755 80.9963 16.261C80.9963 16.7743 81.1539 17.1923 81.4693 17.515C81.7919 17.8377 82.2063 17.999 82.7123 17.999ZM90.4012 13.06C90.9732 13.06 91.4829 13.1847 91.9302 13.434C92.3849 13.6833 92.7405 14.0353 92.9972 14.49C93.2539 14.9447 93.3822 15.469 93.3822 16.063C93.3822 16.657 93.2539 17.185 92.9972 17.647C92.7405 18.1017 92.3849 18.4537 91.9302 18.703C91.4829 18.9523 90.9732 19.077 90.4012 19.077C89.6092 19.077 88.9822 18.813 88.5202 18.285V21.134H87.1452V13.126H88.4542V13.896C88.6815 13.6173 88.9602 13.4083 89.2902 13.269C89.6275 13.1297 89.9979 13.06 90.4012 13.06ZM90.2472 17.9C90.7532 17.9 91.1675 17.7313 91.4902 17.394C91.8202 17.0567 91.9852 16.613 91.9852 16.063C91.9852 15.513 91.8202 15.0693 91.4902 14.732C91.1675 14.3947 90.7532 14.226 90.2472 14.226C89.9172 14.226 89.6202 14.303 89.3562 14.457C89.0922 14.6037 88.8832 14.8163 88.7292 15.095C88.5752 15.3737 88.4982 15.6963 88.4982 16.063C88.4982 16.4297 88.5752 16.7523 88.7292 17.031C88.8832 17.3097 89.0922 17.526 89.3562 17.68C89.6202 17.8267 89.9172 17.9 90.2472 17.9ZM96.8645 13.06C97.7298 13.06 98.3898 13.269 98.8445 13.687C99.3065 14.0977 99.5375 14.721 99.5375 15.557V19H98.2395V18.285C98.0708 18.5417 97.8288 18.7397 97.5135 18.879C97.2055 19.011 96.8315 19.077 96.3915 19.077C95.9515 19.077 95.5665 19.0037 95.2365 18.857C94.9065 18.703 94.6498 18.494 94.4665 18.23C94.2905 17.9587 94.2025 17.6543 94.2025 17.317C94.2025 16.789 94.3968 16.3673 94.7855 16.052C95.1815 15.7293 95.8011 15.568 96.6445 15.568H98.1625V15.48C98.1625 15.0693 98.0378 14.754 97.7885 14.534C97.5465 14.314 97.1835 14.204 96.6995 14.204C96.3695 14.204 96.0431 14.2553 95.7205 14.358C95.4051 14.4607 95.1375 14.6037 94.9175 14.787L94.3785 13.786C94.6865 13.5513 95.0568 13.3717 95.4895 13.247C95.9221 13.1223 96.3805 13.06 96.8645 13.06ZM96.6775 18.076C97.0221 18.076 97.3265 17.999 97.5905 17.845C97.8618 17.6837 98.0525 17.4563 98.1625 17.163V16.481H96.7435C95.9515 16.481 95.5555 16.7413 95.5555 17.262C95.5555 17.5113 95.6545 17.7093 95.8525 17.856C96.0505 18.0027 96.3255 18.076 96.6775 18.076ZM101.239 13.126H102.614V15.513H105.573V13.126H106.948V19H105.573V16.679H102.614V19H101.239V13.126ZM108.791 13.126H110.166V15.513H113.125V13.126H114.5V19H113.125V16.679H110.166V19H108.791V13.126ZM118.96 19.077C118.366 19.077 117.831 18.9487 117.354 18.692C116.878 18.4353 116.504 18.0797 116.232 17.625C115.968 17.163 115.836 16.6423 115.836 16.063C115.836 15.4837 115.968 14.9667 116.232 14.512C116.504 14.0573 116.878 13.7017 117.354 13.445C117.831 13.1883 118.366 13.06 118.96 13.06C119.562 13.06 120.101 13.1883 120.577 13.445C121.054 13.7017 121.424 14.0573 121.688 14.512C121.96 14.9667 122.095 15.4837 122.095 16.063C122.095 16.6423 121.96 17.163 121.688 17.625C121.424 18.0797 121.054 18.4353 120.577 18.692C120.101 18.9487 119.562 19.077 118.96 19.077ZM118.96 17.9C119.466 17.9 119.884 17.7313 120.214 17.394C120.544 17.0567 120.709 16.613 120.709 16.063C120.709 15.513 120.544 15.0693 120.214 14.732C119.884 14.3947 119.466 14.226 118.96 14.226C118.454 14.226 118.036 14.3947 117.706 14.732C117.384 15.0693 117.222 15.513 117.222 16.063C117.222 16.613 117.384 17.0567 117.706 17.394C118.036 17.7313 118.454 17.9 118.96 17.9ZM128.954 16.096C128.954 16.1913 128.946 16.327 128.932 16.503H124.323C124.403 16.9357 124.612 17.2803 124.95 17.537C125.294 17.7863 125.72 17.911 126.226 17.911C126.871 17.911 127.403 17.6983 127.821 17.273L128.558 18.12C128.294 18.4353 127.96 18.6737 127.557 18.835C127.153 18.9963 126.699 19.077 126.193 19.077C125.547 19.077 124.979 18.9487 124.488 18.692C123.996 18.4353 123.615 18.0797 123.344 17.625C123.08 17.163 122.948 16.6423 122.948 16.063C122.948 15.491 123.076 14.9777 123.333 14.523C123.597 14.061 123.96 13.7017 124.422 13.445C124.884 13.1883 125.404 13.06 125.984 13.06C126.556 13.06 127.065 13.1883 127.513 13.445C127.967 13.6943 128.319 14.05 128.569 14.512C128.825 14.9667 128.954 15.4947 128.954 16.096ZM125.984 14.16C125.544 14.16 125.17 14.292 124.862 14.556C124.561 14.8127 124.378 15.1573 124.312 15.59H127.645C127.586 15.1647 127.406 14.82 127.106 14.556C126.805 14.292 126.431 14.16 125.984 14.16Z" fill="#686868"/>
</svg>
