<svg width="100" height="30" viewBox="0 0 100 30" fill="none" xmlns="http://www.w3.org/2000/svg">
<rect x="1.5" y="1.5" width="97" height="27" rx="6.5" fill="#E9E9E9" stroke="#9E9E9E" stroke-width="3"/>
<path d="M23.8489 11.6L20.2009 18.38C19.8809 18.98 19.4969 19.432 19.0489 19.736C18.6089 20.032 18.1289 20.18 17.6089 20.18C17.1929 20.18 16.7809 20.092 16.3729 19.916L16.7569 18.692C17.0849 18.796 17.3569 18.848 17.5729 18.848C18.0769 18.848 18.4929 18.588 18.8209 18.068L18.9529 17.864L15.6049 11.6H17.2729L19.7569 16.532L22.3129 11.6H23.8489ZM28.1401 13.904C28.7481 13.904 29.2841 14.036 29.7481 14.3C30.2121 14.556 30.5721 14.916 30.8281 15.38C31.0921 15.844 31.2241 16.376 31.2241 16.976C31.2241 17.592 31.0801 18.14 30.7921 18.62C30.5041 19.092 30.1001 19.46 29.5801 19.724C29.0601 19.988 28.4681 20.12 27.8041 20.12C26.6921 20.12 25.8321 19.752 25.2241 19.016C24.6161 18.28 24.3121 17.22 24.3121 15.836C24.3121 14.548 24.5881 13.528 25.1401 12.776C25.6921 12.024 26.5361 11.528 27.6721 11.288L30.6481 10.652L30.8641 11.996L28.1641 12.548C27.3881 12.708 26.8081 12.98 26.4241 13.364C26.0401 13.748 25.8161 14.288 25.7521 14.984C26.0401 14.64 26.3881 14.376 26.7961 14.192C27.2041 14 27.6521 13.904 28.1401 13.904ZM27.8401 18.908C28.3921 18.908 28.8361 18.732 29.1721 18.38C29.5161 18.02 29.6881 17.564 29.6881 17.012C29.6881 16.46 29.5161 16.016 29.1721 15.68C28.8361 15.344 28.3921 15.176 27.8401 15.176C27.2801 15.176 26.8281 15.344 26.4841 15.68C26.1401 16.016 25.9681 16.46 25.9681 17.012C25.9681 17.572 26.1401 18.028 26.4841 18.38C26.8361 18.732 27.2881 18.908 27.8401 18.908ZM36.228 13.52C36.852 13.52 37.408 13.656 37.896 13.928C38.392 14.2 38.78 14.584 39.06 15.08C39.34 15.576 39.48 16.148 39.48 16.796C39.48 17.444 39.34 18.02 39.06 18.524C38.78 19.02 38.392 19.404 37.896 19.676C37.408 19.948 36.852 20.084 36.228 20.084C35.364 20.084 34.68 19.796 34.176 19.22V22.328H32.676V13.592H34.104V14.432C34.352 14.128 34.656 13.9 35.016 13.748C35.384 13.596 35.788 13.52 36.228 13.52ZM36.06 18.8C36.612 18.8 37.064 18.616 37.416 18.248C37.776 17.88 37.956 17.396 37.956 16.796C37.956 16.196 37.776 15.712 37.416 15.344C37.064 14.976 36.612 14.792 36.06 14.792C35.7 14.792 35.376 14.876 35.088 15.044C34.8 15.204 34.572 15.436 34.404 15.74C34.236 16.044 34.152 16.396 34.152 16.796C34.152 17.196 34.236 17.548 34.404 17.852C34.572 18.156 34.8 18.392 35.088 18.56C35.376 18.72 35.7 18.8 36.06 18.8ZM43.2788 13.52C44.2228 13.52 44.9428 13.748 45.4388 14.204C45.9428 14.652 46.1948 15.332 46.1948 16.244V20H44.7788V19.22C44.5948 19.5 44.3308 19.716 43.9868 19.868C43.6508 20.012 43.2428 20.084 42.7628 20.084C42.2828 20.084 41.8628 20.004 41.5028 19.844C41.1428 19.676 40.8628 19.448 40.6628 19.16C40.4708 18.864 40.3748 18.532 40.3748 18.164C40.3748 17.588 40.5868 17.128 41.0108 16.784C41.4428 16.432 42.1188 16.256 43.0388 16.256H44.6948V16.16C44.6948 15.712 44.5588 15.368 44.2868 15.128C44.0228 14.888 43.6268 14.768 43.0988 14.768C42.7388 14.768 42.3828 14.824 42.0308 14.936C41.6868 15.048 41.3948 15.204 41.1548 15.404L40.5668 14.312C40.9028 14.056 41.3068 13.86 41.7788 13.724C42.2508 13.588 42.7508 13.52 43.2788 13.52ZM43.0748 18.992C43.4508 18.992 43.7828 18.908 44.0708 18.74C44.3668 18.564 44.5748 18.316 44.6948 17.996V17.252H43.1468C42.2828 17.252 41.8508 17.536 41.8508 18.104C41.8508 18.376 41.9588 18.592 42.1748 18.752C42.3908 18.912 42.6908 18.992 43.0748 18.992ZM53.127 14.864H50.883V20H49.383V14.864H47.127V13.592H53.127V14.864ZM57.431 15.704C58.247 15.704 58.871 15.888 59.303 16.256C59.743 16.624 59.963 17.144 59.963 17.816C59.963 18.52 59.723 19.064 59.243 19.448C58.763 19.832 58.087 20.02 57.215 20.012L54.215 20V13.592H55.715V15.692L57.431 15.704ZM57.083 18.908C57.523 18.916 57.859 18.824 58.091 18.632C58.323 18.44 58.439 18.16 58.439 17.792C58.439 17.432 58.327 17.168 58.103 17C57.879 16.832 57.539 16.744 57.083 16.736L55.715 16.724V18.896L57.083 18.908ZM69.2418 16.664C70.0338 16.904 70.4298 17.416 70.4298 18.2C70.4298 18.776 70.2138 19.22 69.7818 19.532C69.3498 19.844 68.7098 20 67.8618 20H64.5978V13.592H67.7298C68.5138 13.592 69.1258 13.736 69.5658 14.024C70.0058 14.312 70.2258 14.72 70.2258 15.248C70.2258 15.576 70.1378 15.86 69.9618 16.1C69.7938 16.34 69.5538 16.528 69.2418 16.664ZM66.0258 16.268H67.5978C68.3738 16.268 68.7618 16 68.7618 15.464C68.7618 14.944 68.3738 14.684 67.5978 14.684H66.0258V16.268ZM67.7418 18.908C68.5658 18.908 68.9778 18.64 68.9778 18.104C68.9778 17.824 68.8818 17.616 68.6898 17.48C68.4978 17.336 68.1978 17.264 67.7898 17.264H66.0258V18.908H67.7418ZM74.9435 20.084C74.2795 20.084 73.6835 19.944 73.1555 19.664C72.6275 19.384 72.2155 18.996 71.9195 18.5C71.6235 17.996 71.4755 17.428 71.4755 16.796C71.4755 16.164 71.6235 15.6 71.9195 15.104C72.2155 14.608 72.6235 14.22 73.1435 13.94C73.6715 13.66 74.2715 13.52 74.9435 13.52C75.5755 13.52 76.1275 13.648 76.5995 13.904C77.0795 14.16 77.4395 14.528 77.6795 15.008L76.5275 15.68C76.3435 15.384 76.1115 15.164 75.8315 15.02C75.5595 14.868 75.2595 14.792 74.9315 14.792C74.3715 14.792 73.9075 14.976 73.5395 15.344C73.1715 15.704 72.9875 16.188 72.9875 16.796C72.9875 17.404 73.1675 17.892 73.5275 18.26C73.8955 18.62 74.3635 18.8 74.9315 18.8C75.2595 18.8 75.5595 18.728 75.8315 18.584C76.1115 18.432 76.3435 18.208 76.5275 17.912L77.6795 18.584C77.4315 19.064 77.0675 19.436 76.5875 19.7C76.1155 19.956 75.5675 20.084 74.9435 20.084ZM84.9064 16.832C84.9064 16.936 84.8984 17.084 84.8824 17.276H79.8544C79.9424 17.748 80.1704 18.124 80.5384 18.404C80.9144 18.676 81.3784 18.812 81.9304 18.812C82.6344 18.812 83.2144 18.58 83.6704 18.116L84.4744 19.04C84.1864 19.384 83.8224 19.644 83.3824 19.82C82.9424 19.996 82.4464 20.084 81.8944 20.084C81.1904 20.084 80.5704 19.944 80.0344 19.664C79.4984 19.384 79.0824 18.996 78.7864 18.5C78.4984 17.996 78.3544 17.428 78.3544 16.796C78.3544 16.172 78.4944 15.612 78.7744 15.116C79.0624 14.612 79.4584 14.22 79.9624 13.94C80.4664 13.66 81.0344 13.52 81.6664 13.52C82.2904 13.52 82.8464 13.66 83.3344 13.94C83.8304 14.212 84.2144 14.6 84.4864 15.104C84.7664 15.6 84.9064 16.176 84.9064 16.832ZM81.6664 14.72C81.1864 14.72 80.7784 14.864 80.4424 15.152C80.1144 15.432 79.9144 15.808 79.8424 16.28H83.4784C83.4144 15.816 83.2184 15.44 82.8904 15.152C82.5624 14.864 82.1544 14.72 81.6664 14.72Z" fill="#686868"/>
</svg>
