<svg width="175" height="50" viewBox="0 0 175 50" fill="none" xmlns="http://www.w3.org/2000/svg">
<rect x="2" y="2" width="171" height="46" rx="6" fill="#E9E9E9" stroke="#9E9E9E" stroke-width="4"/>
<path d="M29.4977 18V32H26.8977V26H19.6577V32H17.0577V18H19.6577V23.78H26.8977V18H29.4977ZM37.1248 21.2C38.6982 21.2 39.8982 21.58 40.7248 22.34C41.5648 23.0867 41.9848 24.22 41.9848 25.74V32H39.6248V30.7C39.3182 31.1667 38.8782 31.5267 38.3048 31.78C37.7448 32.02 37.0648 32.14 36.2648 32.14C35.4648 32.14 34.7648 32.0067 34.1648 31.74C33.5648 31.46 33.0982 31.08 32.7648 30.6C32.4448 30.1067 32.2848 29.5533 32.2848 28.94C32.2848 27.98 32.6382 27.2133 33.3448 26.64C34.0648 26.0533 35.1915 25.76 36.7248 25.76H39.4848V25.6C39.4848 24.8533 39.2582 24.28 38.8048 23.88C38.3648 23.48 37.7048 23.28 36.8248 23.28C36.2248 23.28 35.6315 23.3733 35.0448 23.56C34.4715 23.7467 33.9848 24.0067 33.5848 24.34L32.6048 22.52C33.1648 22.0933 33.8382 21.7667 34.6248 21.54C35.4115 21.3133 36.2448 21.2 37.1248 21.2ZM36.7848 30.32C37.4115 30.32 37.9648 30.18 38.4448 29.9C38.9382 29.6067 39.2848 29.1933 39.4848 28.66V27.42H36.9048C35.4648 27.42 34.7448 27.8933 34.7448 28.84C34.7448 29.2933 34.9248 29.6533 35.2848 29.92C35.6448 30.1867 36.1448 30.32 36.7848 30.32ZM54.1384 21.32V32H51.6384V27.86C50.6118 28.3533 49.5384 28.6 48.4184 28.6C47.0451 28.6 45.9918 28.2867 45.2584 27.66C44.5251 27.02 44.1584 26.0467 44.1584 24.74V21.32H46.6584V24.58C46.6584 25.26 46.8584 25.7667 47.2584 26.1C47.6584 26.4333 48.2251 26.6 48.9584 26.6C49.8918 26.6 50.7851 26.4 51.6384 26V21.32H54.1384ZM61.4803 21.2C63.0536 21.2 64.2536 21.58 65.0803 22.34C65.9203 23.0867 66.3403 24.22 66.3403 25.74V32H63.9803V30.7C63.6736 31.1667 63.2336 31.5267 62.6603 31.78C62.1003 32.02 61.4203 32.14 60.6203 32.14C59.8203 32.14 59.1203 32.0067 58.5203 31.74C57.9203 31.46 57.4536 31.08 57.1203 30.6C56.8003 30.1067 56.6403 29.5533 56.6403 28.94C56.6403 27.98 56.9936 27.2133 57.7003 26.64C58.4203 26.0533 59.547 25.76 61.0803 25.76H63.8403V25.6C63.8403 24.8533 63.6136 24.28 63.1603 23.88C62.7203 23.48 62.0603 23.28 61.1803 23.28C60.5803 23.28 59.987 23.3733 59.4003 23.56C58.827 23.7467 58.3403 24.0067 57.9403 24.34L56.9603 22.52C57.5203 22.0933 58.1936 21.7667 58.9803 21.54C59.767 21.3133 60.6003 21.2 61.4803 21.2ZM61.1403 30.32C61.767 30.32 62.3203 30.18 62.8003 29.9C63.2936 29.6067 63.6403 29.1933 63.8403 28.66V27.42H61.2603C59.8203 27.42 59.1003 27.8933 59.1003 28.84C59.1003 29.2933 59.2803 29.6533 59.6403 29.92C60.0003 30.1867 60.5003 30.32 61.1403 30.32ZM77.8939 23.44H74.1539V32H71.6539V23.44H67.8939V21.32H77.8939V23.44ZM85.0673 24.84C86.4273 24.84 87.4673 25.1467 88.1873 25.76C88.9207 26.3733 89.2873 27.24 89.2873 28.36C89.2873 29.5333 88.8873 30.44 88.0873 31.08C87.2873 31.72 86.1607 32.0333 84.7073 32.02L79.7073 32V21.32H82.2073V24.82L85.0673 24.84ZM84.4873 30.18C85.2207 30.1933 85.7807 30.04 86.1673 29.72C86.554 29.4 86.7473 28.9333 86.7473 28.32C86.7473 27.72 86.5607 27.28 86.1873 27C85.814 26.72 85.2473 26.5733 84.4873 26.56L82.2073 26.54V30.16L84.4873 30.18ZM107.252 21.32V32H104.772V23.44H99.512V32H97.012V21.32H107.252ZM115.385 32.14C114.305 32.14 113.332 31.9067 112.465 31.44C111.599 30.9733 110.919 30.3267 110.425 29.5C109.945 28.66 109.705 27.7133 109.705 26.66C109.705 25.6067 109.945 24.6667 110.425 23.84C110.919 23.0133 111.599 22.3667 112.465 21.9C113.332 21.4333 114.305 21.2 115.385 21.2C116.479 21.2 117.459 21.4333 118.325 21.9C119.192 22.3667 119.865 23.0133 120.345 23.84C120.839 24.6667 121.085 25.6067 121.085 26.66C121.085 27.7133 120.839 28.66 120.345 29.5C119.865 30.3267 119.192 30.9733 118.325 31.44C117.459 31.9067 116.479 32.14 115.385 32.14ZM115.385 30C116.305 30 117.065 29.6933 117.665 29.08C118.265 28.4667 118.565 27.66 118.565 26.66C118.565 25.66 118.265 24.8533 117.665 24.24C117.065 23.6267 116.305 23.32 115.385 23.32C114.465 23.32 113.705 23.6267 113.105 24.24C112.519 24.8533 112.225 25.66 112.225 26.66C112.225 27.66 112.519 28.4667 113.105 29.08C113.705 29.6933 114.465 30 115.385 30ZM123.555 21.32H126.055V28.36L131.955 21.32H134.235V32H131.735V24.96L125.855 32H123.555V21.32ZM142.458 32.14C141.351 32.14 140.358 31.9067 139.478 31.44C138.598 30.9733 137.911 30.3267 137.418 29.5C136.925 28.66 136.678 27.7133 136.678 26.66C136.678 25.6067 136.925 24.6667 137.418 23.84C137.911 23.0133 138.591 22.3667 139.458 21.9C140.338 21.4333 141.338 21.2 142.458 21.2C143.511 21.2 144.431 21.4133 145.218 21.84C146.018 22.2667 146.618 22.88 147.018 23.68L145.098 24.8C144.791 24.3067 144.405 23.94 143.938 23.7C143.485 23.4467 142.985 23.32 142.438 23.32C141.505 23.32 140.731 23.6267 140.118 24.24C139.505 24.84 139.198 25.6467 139.198 26.66C139.198 27.6733 139.498 28.4867 140.098 29.1C140.711 29.7 141.491 30 142.438 30C142.985 30 143.485 29.88 143.938 29.64C144.405 29.3867 144.791 29.0133 145.098 28.52L147.018 29.64C146.605 30.44 145.998 31.06 145.198 31.5C144.411 31.9267 143.498 32.14 142.458 32.14ZM153.659 27.72H151.719V32H149.219V21.32H151.719V25.64H153.719L156.879 21.32H159.559L155.679 26.46L159.819 32H156.879L153.659 27.72Z" fill="#686868"/>
</svg>
